<?xml version="1.0" standalone="no"?>
<!DOCTYPE svg PUBLIC "-//W3C//DTD SVG 20010904//EN"
 "http://www.w3.org/TR/2001/REC-SVG-20010904/DTD/svg10.dtd">
<svg version="1.0" xmlns="http://www.w3.org/2000/svg"
 width="1666.000000pt" height="883.000000pt" viewBox="0 0 1666.000000 883.000000"
 preserveAspectRatio="xMidYMid meet">

<g transform="translate(0.000000,883.000000) scale(0.100000,-0.100000)"
fill="#000000" stroke="none">
<path d="M7613 7469 c-128 -21 -292 -99 -416 -198 -136 -109 -199 -202 -200
-302 -1 -134 103 -190 264 -143 115 34 161 76 125 112 -15 15 -20 15 -64 -2
-170 -65 -238 -59 -236 21 2 52 26 96 93 166 177 186 466 311 581 252 50 -26
63 -65 57 -174 -7 -143 -84 -416 -158 -563 -34 -68 -38 -113 -10 -128 47 -25
52 -18 168 218 148 302 261 471 347 517 32 17 38 18 46 5 16 -24 1 -121 -46
-309 -48 -188 -52 -235 -29 -286 27 -55 80 -68 150 -36 63 29 94 78 73 115
-13 23 -23 20 -75 -19 -25 -19 -50 -32 -55 -28 -16 9 -3 96 36 242 68 249 71
337 16 393 -24 23 -37 28 -80 28 -28 0 -63 -6 -78 -14 -37 -20 -113 -100 -154
-163 l-34 -52 0 97 c1 78 -3 106 -20 143 -46 99 -144 134 -301 108z m212 -43
c27 -14 48 -36 63 -66 22 -41 23 -54 19 -155 -3 -72 -12 -132 -26 -175 -11
-36 -21 -67 -21 -70 0 -2 32 47 71 110 122 198 186 260 266 260 34 0 49 -6 67
-25 48 -52 43 -125 -23 -378 -49 -185 -53 -260 -12 -265 15 -2 37 8 63 28 43
35 57 33 40 -4 -10 -24 -84 -66 -115 -66 -9 0 -29 11 -44 24 -26 23 -28 29
-26 93 1 41 13 110 31 173 68 236 79 357 35 374 -23 9 -75 -20 -125 -72 -79
-80 -176 -238 -290 -470 -60 -123 -114 -222 -120 -220 -32 11 -31 37 1 103 63
127 140 383 161 535 12 80 6 138 -17 183 -71 140 -388 53 -624 -171 -132 -125
-171 -221 -113 -279 23 -23 31 -25 87 -21 34 3 91 17 126 32 71 29 100 22 55
-13 -32 -25 -143 -61 -190 -61 -43 0 -93 21 -117 48 -22 24 -32 86 -23 136 24
127 256 324 471 398 144 49 255 54 330 14z"/>
<path d="M9485 7246 c-122 -39 -289 -162 -501 -369 -127 -124 -152 -144 -157
-127 -8 30 -32 25 -106 -24 -128 -84 -208 -88 -193 -10 3 17 21 32 66 54 98
49 174 134 158 179 -28 82 -144 62 -238 -42 -57 -64 -83 -115 -91 -176 -17
-149 125 -192 299 -92 l67 39 -24 -36 c-31 -45 -31 -66 -3 -86 38 -27 68 -20
106 24 18 22 47 47 63 56 33 16 33 16 44 -51 11 -63 53 -132 93 -151 31 -14
40 -15 93 -2 l59 15 0 -24 c0 -13 9 -32 20 -43 35 -35 75 -37 178 -5 20 7 22
4 22 -37 0 -52 21 -85 66 -104 43 -18 78 -17 139 4 42 14 56 15 85 5 19 -6 31
-12 26 -12 -5 -1 -96 -19 -202 -41 l-194 -40 -112 54 c-335 163 -732 231
-1138 196 -312 -27 -622 -104 -909 -227 -113 -48 -275 -132 -268 -140 3 -2 56
12 119 31 665 202 1504 219 1952 39 128 -51 135 -56 129 -101 -7 -54 20 -75
105 -80 77 -5 89 -13 143 -96 77 -118 105 -242 89 -389 -13 -113 -32 -159 -88
-207 -64 -57 -143 -79 -320 -89 -79 -5 -146 -11 -148 -14 -7 -6 124 -49 236
-79 75 -19 113 -22 330 -23 225 -2 249 -3 301 -23 261 -102 420 -341 387 -583
-32 -236 -277 -393 -621 -400 -54 -1 -94 -5 -90 -10 15 -13 147 -56 238 -77
290 -67 512 -10 628 160 151 220 95 598 -120 814 -110 109 -211 154 -366 163
l-109 6 45 32 c34 24 54 49 82 107 33 66 38 87 43 168 9 189 -58 335 -241 525
l-90 93 44 20 c24 11 49 20 54 20 6 0 28 -18 49 -39 45 -46 110 -77 183 -87
51 -6 51 -7 40 -31 -10 -22 -8 -28 12 -44 30 -25 40 -24 118 7 69 28 77 27
128 -12 20 -16 20 -16 -5 -32 -14 -9 -42 -33 -62 -53 -44 -43 -50 -85 -19
-135 21 -34 88 -72 144 -81 l35 -5 -24 -36 c-29 -42 -30 -77 -4 -120 23 -38
100 -89 147 -98 41 -8 42 -18 3 -34 -43 -18 -70 -56 -70 -99 0 -79 76 -146
200 -176 84 -21 123 -15 118 18 -2 18 -18 27 -83 48 -93 30 -131 52 -141 82
-11 35 21 49 92 41 55 -5 64 -4 84 16 14 14 20 30 18 45 -4 19 2 26 34 41 50
22 68 48 68 96 0 28 -8 47 -32 73 -96 110 -232 94 -245 -28 -6 -54 -15 -57
-79 -28 -73 33 -69 54 14 65 25 3 51 11 58 17 17 14 19 65 3 74 -6 4 -7 19 -4
36 8 33 2 35 -116 43 -118 7 -174 45 -124 84 26 21 111 46 188 57 59 8 87 41
69 81 -16 34 -33 38 -105 27 -58 -10 -64 -9 -94 15 -18 13 -33 27 -33 31 0 3
24 15 53 26 58 23 71 49 38 79 -25 22 -68 23 -109 2 -25 -13 -69 -19 -173 -23
-76 -3 -139 -3 -139 1 0 3 19 10 43 16 79 21 202 87 240 130 77 84 36 150 -93
150 -36 0 -82 -4 -102 -9 l-37 -9 20 37 c25 47 24 63 -7 100 -34 40 -57 39
-82 -3 -11 -19 -35 -42 -53 -51 -27 -14 -35 -15 -56 -4 -21 11 -34 10 -101
-14 -133 -47 -148 -35 -87 69 38 64 89 114 116 114 45 0 21 87 -33 120 -48 29
-136 27 -213 -6 -33 -14 -71 -27 -85 -29 -14 -1 -56 -19 -93 -39 -83 -44 -144
-49 -177 -14 -11 12 -20 29 -20 37 0 9 -3 26 -6 39 -6 20 -3 22 38 22 102 0
209 58 223 120 9 43 -3 70 -38 85 l-31 13 75 35 c115 55 189 103 247 160 85
84 92 161 17 192 -41 18 -67 18 -120 1z m132 -42 c22 -24 22 -27 7 -62 -8 -20
-27 -50 -42 -66 -67 -71 -251 -171 -462 -251 -101 -38 -131 -54 -156 -84 -18
-20 -31 -37 -30 -39 2 -1 54 22 117 52 126 60 196 82 233 72 52 -13 39 -81
-22 -123 -41 -27 -133 -47 -179 -38 l-36 6 6 -54 c7 -71 21 -95 63 -113 43
-18 107 -5 182 37 30 17 59 28 65 26 7 -2 39 9 71 24 103 49 190 50 240 4 32
-30 34 -61 3 -69 -12 -3 -35 -18 -49 -33 -42 -44 -98 -144 -98 -174 0 -52 36
-54 163 -10 77 27 73 7 -5 -29 -94 -42 -160 -44 -202 -5 -32 30 -34 70 -6 125
11 22 18 40 16 40 -2 0 -26 -11 -53 -24 -93 -47 -160 -51 -192 -13 -14 18 -4
45 33 86 l21 23 -40 -17 c-121 -51 -167 -57 -208 -25 -32 26 -67 117 -67 175
0 25 -4 45 -8 45 -21 0 -128 -79 -141 -103 -16 -30 -37 -34 -66 -13 -19 13
-18 15 10 56 78 113 344 366 510 485 170 121 268 148 322 89z m-899 -236 c20
-20 14 -54 -15 -89 -31 -37 -118 -95 -156 -104 -41 -11 -62 -89 -31 -119 34
-35 129 -12 226 55 70 47 91 43 34 -7 -61 -53 -141 -88 -211 -92 -54 -4 -65
-1 -90 21 -25 21 -29 31 -28 75 1 64 31 128 88 186 69 72 152 105 183 74z
m1242 -598 c13 -25 5 -46 -43 -104 -29 -35 -35 -47 -21 -42 113 35 224 45 269
24 117 -53 -98 -218 -310 -238 l-70 -6 40 -20 c33 -16 62 -19 175 -19 74 0
137 -3 140 -7 3 -4 30 4 59 17 58 28 91 31 109 13 20 -20 14 -26 -50 -47 -95
-32 -95 -32 -26 -80 l62 -43 57 11 c70 14 91 7 87 -28 -3 -24 -9 -27 -88 -41
-98 -18 -176 -52 -186 -82 -8 -28 23 -68 67 -84 18 -7 69 -13 112 -13 42 -1
77 -5 77 -10 0 -24 -123 -28 -197 -6 -68 20 -118 74 -109 118 8 40 30 63 94
100 l53 30 -48 34 c-75 54 -74 54 -139 27 -62 -25 -109 -31 -119 -14 -8 12 29
34 93 55 28 9 52 17 52 18 0 2 -34 1 -76 -1 -79 -4 -181 11 -224 33 -14 7 -47
35 -74 62 l-50 49 -89 -38 c-269 -116 -482 -127 -426 -21 27 51 175 104 459
163 147 31 157 35 184 67 l29 35 -36 -7 c-56 -11 -62 -11 -65 -1 -2 5 24 20
58 32 63 22 120 66 120 91 0 19 36 -1 50 -27z m470 -855 c24 -29 8 -48 -53
-60 -69 -14 -94 -33 -78 -62 11 -22 95 -62 147 -70 l32 -5 -5 39 c-11 82 45
135 120 113 52 -15 117 -81 117 -118 0 -49 -64 -92 -136 -92 -41 0 -45 -15 -5
-23 34 -7 46 -31 26 -51 -11 -10 -30 -13 -74 -9 -70 7 -111 -12 -111 -50 0
-52 53 -90 168 -122 76 -22 70 -41 -8 -24 -77 17 -131 42 -168 79 -59 59 -54
119 13 157 22 13 53 23 68 23 48 0 26 23 -49 50 -92 33 -137 62 -159 104 -16
29 -17 38 -6 64 22 54 132 93 161 57z"/>
<path d="M9471 7160 c-72 -26 -146 -65 -196 -103 -51 -39 -171 -154 -196 -189
l-20 -27 50 15 c143 42 361 156 433 227 85 81 48 120 -71 77z m89 -14 c0 -18
-36 -56 -93 -94 -55 -38 -305 -162 -327 -162 -19 0 59 80 135 137 70 53 139
89 215 114 68 22 70 22 70 5z"/>
<path d="M9190 6783 c-60 -21 -150 -68 -147 -77 10 -30 136 -12 175 24 41 38
24 71 -28 53z m11 -36 c-12 -16 -90 -41 -98 -33 -7 6 74 44 96 45 10 1 11 -2
2 -12z"/>
<path d="M9467 6556 c-101 -42 -157 -89 -157 -132 0 -14 7 -16 42 -11 83 11
298 138 267 158 -25 16 -93 9 -152 -15z m88 -22 c-36 -29 -158 -91 -200 -100
l-30 -7 25 28 c45 49 157 103 215 104 17 0 16 -3 -10 -25z"/>
<path d="M8642 6924 c-29 -20 -104 -115 -97 -122 9 -9 116 69 127 94 16 34 -1
49 -30 28z"/>
<path d="M10020 6229 c-50 -8 -162 -50 -227 -87 -43 -24 -52 -46 -37 -86 20
-52 252 24 334 109 52 54 25 78 -70 64z m70 -28 c0 -34 -172 -123 -262 -136
-47 -7 -48 -7 -48 19 0 21 10 31 53 52 112 58 257 94 257 65z"/>
<path d="M9540 6125 c-145 -38 -309 -101 -317 -122 -9 -22 3 -27 60 -25 105 3
283 74 381 151 49 39 37 39 -124 -4z m3 -43 c-40 -19 -56 -23 -64 -15 -9 9 1
15 37 27 74 22 85 18 27 -12z"/>
<path d="M10545 5389 c-17 -21 -25 -41 -23 -58 3 -25 6 -26 63 -26 l60 0 3 33
c4 43 -21 82 -52 82 -15 0 -35 -12 -51 -31z m63 3 c7 -5 14 -22 15 -38 2 -28
0 -29 -38 -29 -34 0 -40 3 -37 20 4 20 30 55 41 55 3 0 12 -4 19 -8z"/>
<path d="M6825 6019 c-365 -34 -608 -128 -780 -304 -126 -128 -172 -254 -162
-444 10 -187 72 -327 207 -461 135 -136 267 -192 445 -192 106 0 183 14 405
76 l125 35 -111 0 c-224 2 -401 29 -494 76 -59 30 -157 134 -209 222 -62 106
-85 195 -79 310 5 86 9 102 48 180 153 308 554 453 1078 388 111 -14 389 -67
427 -81 8 -3 15 -4 15 -1 0 10 -217 96 -305 121 -112 31 -292 62 -408 71 -49
3 -94 8 -100 9 -7 2 -52 -1 -102 -5z"/>
<path d="M8115 4964 c-33 -2 -125 -9 -205 -16 -168 -13 -160 -18 65 -43 460
-51 828 -150 1078 -292 102 -57 234 -159 282 -217 l36 -44 -15 -89 c-34 -202
-56 -572 -39 -662 8 -41 11 -32 65 190 59 242 93 395 128 583 l21 109 -28 29
c-15 16 -62 56 -103 89 -246 193 -534 309 -870 348 -99 12 -329 20 -415 15z"/>
<path d="M7076 4690 c-3 -19 -8 -64 -11 -100 -19 -195 -71 -569 -116 -833 -7
-37 -9 -70 -6 -73 3 -4 86 14 184 40 453 116 666 150 933 150 212 0 304 -12
511 -64 112 -29 375 -117 467 -156 l42 -19 -83 3 c-200 9 -415 -76 -505 -199
l-29 -39 -48 39 c-60 50 -151 94 -235 116 -92 24 -280 17 -370 -14 -133 -46
-256 -147 -331 -270 l-37 -61 -27 72 c-60 161 -104 220 -194 262 -41 19 -63
21 -221 21 -162 0 -179 -2 -221 -23 -55 -27 -114 -83 -139 -132 -9 -19 -35
-81 -56 -138 l-38 -103 -26 74 c-30 87 -82 160 -149 210 -105 79 -197 108
-369 114 -155 7 -249 -6 -370 -49 -46 -16 -85 -28 -86 -26 -2 4 -70 199 -113
324 -42 124 -73 163 -161 206 -62 31 -74 33 -167 33 -87 0 -107 -3 -150 -25
l-50 -25 -400 -5 -400 -5 -50 -27 c-62 -32 -129 -103 -158 -166 -31 -66 -31
-198 0 -264 24 -52 95 -134 124 -143 17 -6 19 -17 19 -109 l0 -103 -56 -6
c-182 -19 -357 -201 -420 -437 -25 -91 -25 -279 -1 -385 79 -348 387 -610 787
-670 190 -29 432 -12 604 42 230 72 434 228 524 401 18 36 32 51 42 48 8 -3
42 -15 75 -27 50 -19 80 -23 180 -23 105 0 129 3 194 26 72 26 75 27 134 11
49 -12 88 -14 192 -8 71 4 157 5 190 4 161 -9 442 -3 478 9 31 11 43 11 75 0
26 -9 97 -13 242 -13 218 0 276 10 342 56 l27 20 53 -30 c105 -59 179 -76 323
-75 146 0 212 17 318 80 68 40 69 40 91 15 10 -11 41 -30 69 -42 68 -31 229
-33 325 -5 l62 19 68 -30 c92 -42 168 -56 292 -56 177 1 321 53 417 152 l31
33 67 -47 c210 -150 530 -165 764 -35 48 27 56 28 70 16 9 -9 43 -28 76 -43
l60 -28 257 -1 c246 -1 258 -2 305 -24 32 -15 73 -25 123 -28 100 -5 163 18
258 99 l72 61 39 -31 c67 -53 126 -74 228 -79 l93 -5 24 -42 c50 -84 147 -150
269 -182 47 -12 89 -14 172 -10 222 11 381 91 486 243 71 104 110 286 90 428
-21 150 -69 246 -171 346 -111 109 -233 168 -394 192 l-84 12 -4 135 c-3 125
-5 141 -31 193 -34 69 -91 121 -166 149 -45 17 -71 20 -136 16 -101 -5 -149
-25 -251 -103 l-82 -63 -21 23 c-47 50 -120 80 -207 84 -106 6 -177 -16 -260
-79 l-62 -47 -50 48 c-66 64 -127 84 -236 78 -96 -5 -157 -33 -275 -127 l-74
-59 -65 49 c-131 101 -247 139 -422 139 -247 0 -445 -105 -564 -298 l-39 -62
-22 64 c-43 123 -132 218 -315 339 -289 189 -631 318 -1025 387 -220 38 -378
52 -667 57 l-288 6 0 211 c0 188 -9 339 -26 418 -5 25 -9 27 -69 30 l-64 3 -5
-35z m-1898 -866 c12 -8 22 -21 22 -28 0 -6 27 -85 60 -174 77 -209 78 -257 5
-288 -76 -31 -120 -10 -201 96 -59 77 -83 83 -321 88 l-203 4 0 -190 0 -190
78 -7 c238 -21 443 -102 575 -225 108 -100 151 -209 151 -375 -1 -180 -51
-305 -168 -420 -83 -82 -210 -151 -341 -186 -124 -32 -378 -38 -509 -11 -226
47 -417 183 -502 359 -101 208 -79 458 53 604 49 54 100 79 164 79 153 0 193
-118 97 -286 -59 -104 -72 -144 -65 -215 16 -184 196 -298 468 -299 223 0 398
89 467 238 23 49 27 70 27 148 -1 82 -4 97 -34 158 -38 79 -100 133 -188 166
-58 22 -233 46 -259 36 -9 -3 -14 -22 -14 -51 0 -43 1 -45 30 -45 42 0 94 -23
114 -51 21 -30 21 -81 0 -122 -20 -39 -278 -303 -316 -323 -79 -42 -198 17
-198 98 0 16 19 73 43 126 l42 97 3 437 c2 277 -1 445 -7 456 -6 11 -37 29
-71 41 -64 24 -90 54 -90 106 0 36 28 81 57 94 16 7 157 11 420 11 330 0 399
2 412 14 51 46 154 62 199 30z m3965 -442 c125 -58 189 -149 188 -270 l0 -67
57 -31 c110 -59 179 -184 189 -340 10 -143 -40 -250 -137 -299 -150 -76 -413
-45 -465 55 -32 61 -13 146 41 189 39 31 75 27 124 -14 38 -32 47 -35 105 -35
88 0 99 12 92 103 -3 47 -11 77 -24 95 -34 46 -58 53 -169 46 -114 -7 -152 4
-179 56 -33 64 -5 128 75 168 69 34 74 108 9 131 -54 19 -146 14 -169 -9 -18
-18 -19 -30 -15 -182 3 -90 7 -200 10 -245 5 -95 -8 -237 -25 -274 -7 -15 -31
-37 -54 -50 -34 -20 -55 -24 -128 -24 -109 0 -129 14 -136 99 -6 69 10 110 48
126 25 10 31 21 44 80 20 85 20 158 1 280 -22 144 -20 225 9 287 50 107 181
166 352 159 77 -3 102 -8 157 -34z m3102 3 c25 -24 25 -25 25 -228 0 -231 4
-272 29 -261 36 16 225 16 294 0 140 -33 252 -117 303 -229 26 -56 29 -72 28
-162 -1 -79 -5 -112 -24 -159 -31 -79 -97 -146 -176 -176 -73 -28 -241 -39
-298 -20 -48 16 -105 66 -122 107 -21 48 -18 116 6 145 18 24 26 25 147 30
138 6 175 17 192 55 14 31 14 98 0 125 -19 36 -91 59 -182 60 -135 0 -169 -24
-187 -136 -24 -139 -46 -156 -210 -156 -110 0 -112 0 -141 29 -21 22 -29 39
-29 66 0 46 12 69 64 123 l41 43 3 214 3 215 -26 0 c-14 0 -41 6 -60 14 -53
23 -69 70 -41 124 14 27 149 140 216 181 50 30 114 28 145 -4z m-6072 -73 c38
-19 78 -47 92 -66 49 -64 55 -101 55 -335 0 -119 4 -231 10 -250 5 -18 30 -55
55 -82 51 -54 61 -101 33 -155 -17 -35 -52 -44 -168 -44 -102 0 -110 2 -139
26 -43 35 -51 77 -51 252 l0 152 -52 0 c-123 0 -245 -36 -268 -79 -5 -11 -10
-36 -10 -55 0 -30 6 -40 33 -56 40 -25 53 -25 112 1 37 17 52 19 71 10 41 -18
57 -55 52 -121 -8 -107 -65 -151 -204 -158 -105 -6 -166 14 -232 73 -69 63
-97 127 -97 230 1 70 4 87 30 134 69 125 209 188 438 198 l127 6 0 44 c0 36
-6 50 -29 74 -47 46 -87 41 -224 -31 -91 -47 -125 -60 -160 -60 -123 0 -153
155 -46 238 83 66 195 93 369 89 131 -2 138 -3 203 -35z m970 16 c14 -14 64
-138 131 -323 108 -299 108 -300 182 -398 84 -111 94 -148 50 -192 -33 -33
-66 -37 -260 -33 l-168 3 -24 28 c-40 47 -33 87 27 153 59 65 61 37 -18 292
-32 104 -61 181 -67 179 -10 -3 -70 -185 -116 -350 l-19 -68 50 -55 c58 -64
65 -105 25 -151 l-24 -28 -168 -3 c-194 -4 -227 0 -260 33 -48 48 -34 90 83
237 35 44 60 103 148 342 113 307 127 341 147 349 7 3 68 6 136 6 115 1 124 0
145 -21z m1050 -10 c106 -50 197 -168 232 -305 20 -76 19 -248 -1 -327 -54
-211 -207 -336 -409 -336 -205 0 -360 131 -411 346 -23 100 -15 288 16 367 33
87 99 177 160 220 79 55 127 67 250 64 89 -2 114 -7 163 -29z m2151 -1 c159
-74 245 -214 233 -380 -5 -80 -24 -112 -83 -142 -35 -18 -63 -20 -281 -23
-270 -4 -259 -1 -223 -71 60 -119 178 -134 336 -43 101 59 138 65 180 29 22
-19 28 -34 32 -80 6 -72 -9 -107 -65 -156 -67 -60 -159 -93 -274 -99 -152 -7
-267 31 -358 119 -100 97 -142 206 -142 369 1 252 106 421 306 493 39 14 74
17 165 14 101 -2 122 -6 174 -30z m735 7 c20 -25 21 -39 21 -231 0 -192 1
-205 18 -197 9 4 71 11 137 14 66 3 126 9 133 13 6 5 12 26 12 47 0 37 -1 38
-42 45 -76 13 -107 70 -73 134 12 25 138 132 215 184 32 22 123 23 140 2 10
-12 12 -83 11 -300 -2 -284 -2 -285 19 -285 29 0 76 -26 84 -45 12 -32 6 -90
-13 -120 -24 -40 -222 -225 -266 -248 -29 -16 -40 -17 -70 -7 -37 12 -72 49
-81 86 -4 14 8 53 32 105 33 75 38 95 42 186 l4 101 -38 -13 c-22 -8 -78 -14
-126 -15 -48 0 -99 -5 -113 -12 -26 -11 -26 -14 -20 -72 6 -59 8 -63 72 -121
59 -54 65 -64 65 -99 0 -28 -7 -46 -26 -65 l-26 -26 -202 -3 c-212 -3 -245 2
-273 42 -35 49 -12 114 57 156 27 17 53 42 58 56 6 14 10 103 10 199 l0 173
-39 7 c-69 12 -101 59 -81 120 9 26 35 54 103 108 133 105 136 107 188 107 39
0 51 -5 68 -26z"/>
<path d="M7944 3091 c-31 -14 -47 -30 -65 -67 -21 -44 -24 -62 -24 -169 0
-105 3 -125 23 -163 30 -56 73 -82 137 -82 107 0 155 66 163 221 5 114 -13
191 -55 231 -53 51 -111 60 -179 29z"/>
<path d="M10080 3119 c-49 -20 -94 -73 -111 -131 l-8 -30 147 4 c170 4 202 15
202 69 0 43 -17 69 -55 85 -39 16 -138 18 -175 3z"/>
</g>
</svg>
